<svg xmlns="http://www.w3.org/2000/svg" viewBox="0 0 512 512"><title>Zebra</title><polygon points="366.6 263.27 330.54 227.2 330.54 329.26 366.6 329.26 366.6 263.27"/><path d="M222.33,154.6h87.83l-35.9-35.91-.16-.17H227.91A59.39,59.39,0,0,0,222.33,0V118.69h0L123.64,20.3q-7.83,4.07-15.2,8.87a180.51,180.51,0,0,0-15.57,11.4l93.41,93.05v204.3L258.4,410v-51L222.33,323Z"/><polygon points="258.4 154.82 258.22 329 294.26 329 294.45 191.07 258.4 154.82"/><polygon points="382.14 227.16 346.08 191.12 294.45 191.12 330.47 227.16 382.14 227.16"/><path d="M150.21,304v-2.14h0v-153L67.37,66A180.16,180.16,0,0,0,47.06,96.71l67.09,67.09v51L32.74,133.37a179.15,179.15,0,0,0-6.12,44.89S146.17,299.81,150.21,304Z"/><polygon points="27.24 229.87 27.24 280.86 258.4 512 258.4 461.01 27.24 229.87"/><path d="M438.73,283.68H402.65v45.58h-36a59.39,59.39,0,1,0,118.78,0Z"/></svg>